# xmcd
#
# Track frame offsets: 
#        150
#        17680
#        36655
#        56310
#        71435
#        86850
#        107400
#        125648
#        147863
#
# Disc length: 2204 seconds
#
# Revision: 4
# Processed by: cddbd v1.5.2PL0 Copyright (c) Steve Scherf et al.
# Submitted via: ExactAudioCopyFreeDBPlugin 1.0
#
DISCID=7a089a09
DTITLE=Sherrick - Sherrick
DYEAR=1987
DGENRE=R&B
TTITLE0=Tell Me What It Is
TTITLE1=Just Call
TTITLE2=Baby, I'm For Real
TTITLE3=This Must Be Love
TTITLE4=Do You Baby
TTITLE5=All Because Of You
TTITLE6=Let's Be Lovers Tonight
TTITLE7=Lady You Are
TTITLE8=Send For Me
EXTD=
EXTT0=
EXTT1=
EXTT2=
EXTT3=
EXTT4=
EXTT5=
EXTT6=
EXTT7=
EXTT8=
PLAYORDER=
